<svg width="20" height="20" viewBox="0 0 20 20" fill="none" xmlns="http://www.w3.org/2000/svg">
<g fill="#666666" id="manage_search">
<mask id="mask0_208_97" style="mask-type:alpha" maskUnits="userSpaceOnUse" x="0" y="0" width="20" height="20">
<rect id="Bounding box" width="20" height="20" fill="#D9D9D9"/>
</mask>
<g mask="url(#mask0_208_97)">
<path id="manage_search_2" d="M2.70825 15.4006C2.53117 15.4006 2.38277 15.3407 2.26304 15.2208C2.14318 15.1009 2.08325 14.9525 2.08325 14.7754C2.08325 14.5982 2.14318 14.4498 2.26304 14.3302C2.38277 14.2104 2.53117 14.1506 2.70825 14.1506H9.60742C9.7845 14.1506 9.9329 14.2105 10.0526 14.3304C10.1723 14.4502 10.2322 14.5987 10.2322 14.7758C10.2322 14.953 10.1723 15.1014 10.0526 15.221C9.9329 15.3407 9.7845 15.4006 9.60742 15.4006H2.70825ZM2.70825 11.322C2.53117 11.322 2.38277 11.2621 2.26304 11.1423C2.14318 11.0224 2.08325 10.8739 2.08325 10.6968C2.08325 10.5196 2.14318 10.3712 2.26304 10.2516C2.38277 10.1319 2.53117 10.072 2.70825 10.072H5.40054C5.57763 10.072 5.7261 10.132 5.84596 10.2518C5.96568 10.3717 6.02554 10.5202 6.02554 10.6973C6.02554 10.8745 5.96568 11.0229 5.84596 11.1427C5.7261 11.2623 5.57763 11.322 5.40054 11.322H2.70825ZM2.70825 7.2435C2.53117 7.2435 2.38277 7.18357 2.26304 7.06371C2.14318 6.94385 2.08325 6.79538 2.08325 6.61829C2.08325 6.44107 2.14318 6.29267 2.26304 6.17308C2.38277 6.05336 2.53117 5.9935 2.70825 5.9935H5.40054C5.57763 5.9935 5.7261 6.05343 5.84596 6.17329C5.96568 6.29315 6.02554 6.4417 6.02554 6.61892C6.02554 6.796 5.96568 6.9444 5.84596 7.06413C5.7261 7.18371 5.57763 7.2435 5.40054 7.2435H2.70825ZM11.6345 12.9245C10.5903 12.9245 9.70033 12.5598 8.9645 11.8302C8.22853 11.1004 7.86054 10.2139 7.86054 9.17058C7.86054 8.12739 8.22867 7.24093 8.96492 6.51121C9.70131 5.78149 10.5918 5.41663 11.6364 5.41663C12.6811 5.41663 13.571 5.78149 14.306 6.51121C15.041 7.24093 15.4085 8.12607 15.4085 9.16663C15.4085 9.55343 15.3481 9.93406 15.2274 10.3085C15.1067 10.6829 14.9283 11.0261 14.6922 11.3381L17.4774 14.0993C17.5981 14.2129 17.6585 14.3575 17.6585 14.5331C17.6585 14.7086 17.5981 14.8568 17.4774 14.9775C17.3638 15.0929 17.2192 15.1506 17.0437 15.1506C16.8681 15.1506 16.72 15.0929 16.5993 14.9775L13.8141 12.2162C13.4967 12.447 13.1508 12.6228 12.7764 12.7435C12.4019 12.8642 12.0213 12.9245 11.6345 12.9245ZM11.6345 11.6745C12.3356 11.6745 12.9316 11.4315 13.4224 10.9454C13.9133 10.4593 14.1587 9.86767 14.1587 9.17058C14.1587 8.4735 13.9133 7.8819 13.4224 7.39579C12.9316 6.90968 12.3356 6.66663 11.6345 6.66663C10.9334 6.66663 10.3374 6.90968 9.84659 7.39579C9.35589 7.8819 9.11054 8.4735 9.11054 9.17058C9.11054 9.86767 9.35589 10.4593 9.84659 10.9454C10.3374 11.4315 10.9334 11.6745 11.6345 11.6745Z" />
</g>
</g>
</svg>
