<svg width="20" height="20" viewBox="0 0 20 20" fill="none" xmlns="http://www.w3.org/2000/svg">
<g fill="#666666" id="settings">
<mask id="mask0_208_107" style="mask-type:alpha" maskUnits="userSpaceOnUse" x="0" y="0" width="20" height="20">
<rect id="Bounding box" width="20" height="20" fill="#D9D9D9"/>
</mask>
<g mask="url(#mask0_208_107)">
<path id="settings_2" d="M9.07687 17.9167C8.7927 17.9167 8.54729 17.8224 8.34062 17.6338C8.13381 17.4453 8.00798 17.2132 7.96312 16.9375L7.75958 15.3782C7.53638 15.3034 7.3075 15.1988 7.07291 15.0642C6.83847 14.9295 6.62881 14.7852 6.44395 14.6315L4.99999 15.2453C4.73819 15.3607 4.47513 15.3718 4.21083 15.2788C3.94638 15.1859 3.74097 15.0171 3.59458 14.7725L2.65541 13.1442C2.50902 12.8996 2.46687 12.6408 2.52895 12.3677C2.5909 12.0948 2.73298 11.8697 2.9552 11.6923L4.20354 10.7548C4.18437 10.6309 4.17076 10.5065 4.1627 10.3815C4.15465 10.2565 4.15062 10.132 4.15062 10.008C4.15062 9.88949 4.15465 9.76907 4.1627 9.64671C4.17076 9.52435 4.18437 9.39053 4.20354 9.24525L2.9552 8.30775C2.73298 8.13039 2.59222 7.90386 2.53291 7.62817C2.47361 7.35261 2.51715 7.09247 2.66354 6.84775L3.59458 5.24358C3.74097 5.00428 3.94638 4.83685 4.21083 4.74129C4.47513 4.6456 4.73819 4.65546 4.99999 4.77087L6.43583 5.37671C6.6368 5.21754 6.85131 5.07199 7.07937 4.94004C7.30743 4.8081 7.53152 4.70205 7.75166 4.62192L7.96312 3.06254C8.00798 2.78685 8.13381 2.55476 8.34062 2.36629C8.54729 2.17768 8.7927 2.08337 9.07687 2.08337H10.9231C11.2073 2.08337 11.4527 2.17768 11.6594 2.36629C11.8662 2.55476 11.992 2.78685 12.0369 3.06254L12.2404 4.62983C12.4904 4.72067 12.7166 4.82671 12.919 4.94796C13.1215 5.06921 13.3258 5.21212 13.5321 5.37671L15.0081 4.77087C15.2698 4.65546 15.5328 4.6456 15.7973 4.74129C16.0617 4.83685 16.2671 5.00428 16.4133 5.24358L17.3446 6.85587C17.491 7.10046 17.5331 7.35928 17.471 7.63233C17.4091 7.90525 17.267 8.13039 17.0448 8.30775L15.7644 9.26921C15.7942 9.40379 15.8105 9.52962 15.8133 9.64671C15.816 9.76365 15.8173 9.88143 15.8173 10C15.8173 10.1132 15.8146 10.2284 15.8092 10.3455C15.8039 10.4624 15.7847 10.5962 15.7517 10.7469L17.0079 11.6923C17.2301 11.8697 17.3736 12.0948 17.4383 12.3677C17.5029 12.6408 17.462 12.8996 17.3156 13.1442L16.3717 14.7644C16.2254 15.0091 16.0187 15.178 15.7517 15.2709C15.4846 15.3638 15.2201 15.3525 14.9583 15.2371L13.5321 14.6234C13.3258 14.788 13.1153 14.9335 12.9006 15.06C12.6859 15.1867 12.4658 15.2901 12.2404 15.3703L12.0369 16.9375C11.992 17.2132 11.8662 17.4453 11.6594 17.6338C11.4527 17.8224 11.2073 17.9167 10.9231 17.9167H9.07687ZM9.16666 16.6667H10.8046L11.1042 14.4344C11.5294 14.3233 11.9181 14.1655 12.27 13.9609C12.6221 13.7562 12.9616 13.493 13.2885 13.1715L15.359 14.0417L16.1796 12.625L14.3719 11.263C14.4413 11.0471 14.4885 10.8355 14.5135 10.6282C14.5387 10.4209 14.5512 10.2116 14.5512 10C14.5512 9.7831 14.5387 9.57372 14.5135 9.37192C14.4885 9.16997 14.4413 8.96372 14.3719 8.75317L16.1954 7.37504L15.375 5.95837L13.2804 6.84129C13.0015 6.54324 12.6674 6.2799 12.2781 6.05129C11.8887 5.82268 11.4947 5.66081 11.0962 5.56567L10.8333 3.33337H9.17958L8.90374 5.55775C8.47861 5.65817 8.08604 5.81198 7.72604 6.01921C7.3659 6.22657 7.02236 6.49365 6.69541 6.82046L4.625 5.95837L3.80458 7.37504L5.60416 8.71629C5.53472 8.91407 5.48611 9.11976 5.45833 9.33337C5.43055 9.54699 5.41666 9.77185 5.41666 10.008C5.41666 10.2249 5.43055 10.4375 5.45833 10.6459C5.48611 10.8542 5.53208 11.0599 5.59625 11.263L3.80458 12.625L4.625 14.0417L6.6875 13.1667C7.00375 13.4914 7.34187 13.7575 7.70187 13.9648C8.06201 14.1721 8.45999 14.3312 8.89583 14.4423L9.16666 16.6667ZM10.0096 12.5C10.7029 12.5 11.2929 12.2567 11.7796 11.77C12.2662 11.2834 12.5096 10.6934 12.5096 10C12.5096 9.30671 12.2662 8.71671 11.7796 8.23004C11.2929 7.74337 10.7029 7.50004 10.0096 7.50004C9.30763 7.50004 8.71548 7.74337 8.23312 8.23004C7.75076 8.71671 7.50958 9.30671 7.50958 10C7.50958 10.6934 7.75076 11.2834 8.23312 11.77C8.71548 12.2567 9.30763 12.5 10.0096 12.5Z" />
</g>
</g>
</svg>
